<svg width="22" height="22" viewBox="0 0 22 22" fill="none" xmlns="http://www.w3.org/2000/svg">
<path d="M19.5312 0H2.34375C1.0498 0 0 1.0498 0 2.34375V19.5312C0 20.8252 1.0498 21.875 2.34375 21.875H19.5312C20.8252 21.875 21.875 20.8252 21.875 19.5312V2.34375C21.875 1.0498 20.8252 0 19.5312 0ZM6.20117 17.2119C5.93262 17.6807 5.33203 17.8369 4.86816 17.5684C4.39941 17.2998 4.24316 16.6992 4.51172 16.2354L5.20996 15.0293C5.99609 14.79 6.64063 14.9756 7.14355 15.5859L6.20117 17.2119ZM12.9834 14.5801H4.10156C3.56445 14.5801 3.125 14.1406 3.125 13.6035C3.125 13.0664 3.56445 12.627 4.10156 12.627H6.5918L9.78516 7.09961L8.78418 5.37109C8.51562 4.90234 8.67676 4.30664 9.14062 4.03809C9.60937 3.76953 10.2051 3.93066 10.4736 4.39453L10.9082 5.14648L11.3428 4.39453C11.6113 3.92578 12.2119 3.76953 12.6758 4.03809C13.1445 4.30664 13.3008 4.90723 13.0322 5.37109L8.84277 12.627H11.875C12.8613 12.627 13.4131 13.7842 12.9834 14.5801ZM17.7734 14.5801H16.3574L17.3145 16.2354C17.583 16.7041 17.4219 17.2998 16.958 17.5684C16.4893 17.8369 15.8936 17.6758 15.625 17.2119C14.0186 14.4336 12.8174 12.3437 12.0117 10.957C11.1963 9.54102 11.7773 8.125 12.3584 7.64648C12.998 8.75488 13.9551 10.415 15.2344 12.627H17.7734C18.3105 12.627 18.75 13.0664 18.75 13.6035C18.75 14.1455 18.3105 14.5801 17.7734 14.5801Z" fill="#250844"/>
</svg>
